<svg width="52" height="52" viewBox="0 0 52 52" fill="none" xmlns="http://www.w3.org/2000/svg">
<path fill-rule="evenodd" clip-rule="evenodd" d="M32.5871 8.77825C34.7755 9.64925 35.445 12.6826 36.3398 13.6576C37.2346 14.6326 38.5151 14.9641 39.2236 14.9641C42.9893 14.9641 46.0421 18.0169 46.0421 21.7804V34.3363C46.0421 39.3846 41.9471 43.4796 36.8988 43.4796H15.1021C10.0516 43.4796 5.9588 39.3846 5.9588 34.3363V21.7804C5.9588 18.0169 9.01163 14.9641 12.7773 14.9641C13.4836 14.9641 14.7641 14.6326 15.6611 13.6576C16.556 12.6826 17.2233 9.64925 19.4116 8.77825C21.6021 7.90725 30.3988 7.90725 32.5871 8.77825Z" stroke="white" stroke-width="3" stroke-linecap="round" stroke-linejoin="round"/>
<path d="M37.9069 20.5843H37.9264" stroke="white" stroke-width="3" stroke-linecap="round" stroke-linejoin="round"/>
<path fill-rule="evenodd" clip-rule="evenodd" d="M32.8876 28.4445C32.8876 24.6398 29.8044 21.5566 25.9998 21.5566C22.1951 21.5566 19.1119 24.6398 19.1119 28.4445C19.1119 32.2491 22.1951 35.3323 25.9998 35.3323C29.8044 35.3323 32.8876 32.2491 32.8876 28.4445Z" stroke="white" stroke-width="3" stroke-linecap="round" stroke-linejoin="round"/>
</svg>
