<svg width="163" height="15" viewBox="0 0 163 15" fill="none" xmlns="http://www.w3.org/2000/svg">
<path fill-rule="evenodd" clip-rule="evenodd" d="M114.262 5.4167L117.399 0.761698C117.542 0.528973 117.742 0.33677 117.981 0.203431C118.219 0.0700914 118.488 6.40534e-05 118.761 3.12854e-05C118.971 -0.00128721 119.18 0.039082 119.375 0.118815C119.571 0.198548 119.748 0.316072 119.897 0.464622C120.047 0.613172 120.165 0.789817 120.246 0.98439C120.327 1.17896 120.369 1.38762 120.369 1.59836V13.4C120.369 13.6099 120.328 13.8178 120.247 14.0117C120.167 14.2056 120.049 14.3818 119.901 14.5302C119.752 14.6786 119.576 14.7964 119.382 14.8767C119.188 14.957 118.981 14.9984 118.771 14.9984H118.437C118.205 14.9985 117.975 14.9478 117.764 14.85C117.553 14.7521 117.366 14.6094 117.216 14.4317L107.882 3.26503C107.866 3.24569 107.844 3.23185 107.819 3.22538C107.795 3.2189 107.769 3.22009 107.745 3.22879C107.721 3.23749 107.7 3.25328 107.685 3.27405C107.671 3.29482 107.663 3.31958 107.662 3.34503V11.7184C107.662 11.7425 107.669 11.7663 107.681 11.7867C107.694 11.8071 107.713 11.8233 107.735 11.8332C107.757 11.8431 107.781 11.8464 107.805 11.8426C107.829 11.8388 107.851 11.828 107.869 11.8117L110.956 9.14503C111.016 9.08585 111.096 9.05156 111.18 9.04907C111.264 9.04658 111.346 9.07607 111.41 9.13161C111.473 9.18715 111.513 9.26461 111.521 9.34842C111.53 9.43223 111.507 9.51617 111.456 9.58336L108.319 14.2384C108.176 14.4711 107.976 14.6633 107.737 14.7966C107.499 14.93 107.231 15 106.957 15C106.533 15 106.127 14.8316 105.827 14.5319C105.527 14.2321 105.359 13.8256 105.359 13.4017V1.59836C105.359 1.17446 105.527 0.767918 105.827 0.468172C106.127 0.168427 106.533 3.12854e-05 106.957 3.12854e-05H107.282C107.515 0.00137234 107.745 0.0536847 107.956 0.153301C108.167 0.252918 108.353 0.397427 108.502 0.576698L117.836 11.7434C117.852 11.7627 117.874 11.7765 117.899 11.783C117.924 11.7895 117.95 11.7883 117.973 11.7796C117.997 11.7709 118.018 11.7551 118.033 11.7343C118.047 11.7136 118.055 11.6888 118.056 11.6634V3.2817C118.056 3.25756 118.05 3.23381 118.037 3.21339C118.024 3.19298 118.005 3.1768 117.983 3.16686C117.961 3.15692 117.937 3.15366 117.913 3.15748C117.889 3.16131 117.867 3.17204 117.849 3.18836L114.762 5.85503C114.702 5.91421 114.622 5.9485 114.538 5.95099C114.454 5.95348 114.372 5.92399 114.308 5.86845C114.245 5.81291 114.205 5.73545 114.197 5.65164C114.188 5.56783 114.212 5.48388 114.262 5.4167ZM133.894 11.8753V3.12535C133.894 3.0937 133.882 3.06333 133.86 3.04019C133.838 3.01706 133.809 3.00284 133.777 3.00035H132.574C132.541 3.00035 132.509 3.01352 132.486 3.03696C132.462 3.0604 132.449 3.0922 132.449 3.12535V6.76701L132.577 9.94368L128.447 3.57035C128.334 3.39545 128.178 3.25172 127.995 3.15219C127.811 3.05265 127.606 3.00046 127.397 3.00035H126.492C126.459 3.00078 126.428 3.01409 126.405 3.03744C126.381 3.06079 126.368 3.09233 126.367 3.12535V11.8753C126.368 11.9084 126.381 11.9399 126.405 11.9633C126.428 11.9866 126.459 11.9999 126.492 12.0003H127.696C127.729 11.9999 127.76 11.9866 127.784 11.9633C127.807 11.9399 127.82 11.9084 127.821 11.8753V8.23368L127.679 5.04535L131.809 11.4287C131.922 11.6042 132.078 11.7485 132.261 11.8484C132.445 11.9483 132.65 12.0005 132.859 12.0003H133.769C133.802 11.9999 133.834 11.9866 133.857 11.9633C133.88 11.9399 133.894 11.9084 133.894 11.8753ZM4.99569 3.15448C6.93035 3.15448 8.42183 4.27948 8.6903 6.2184H7.09655C6.91331 5.17436 6.08234 4.57351 5.02126 4.57351C3.59371 4.57351 2.58802 5.66868 2.58802 7.63743C2.58802 9.64027 3.60223 10.7014 5.017 10.7014C6.06104 10.7014 6.89626 10.1261 7.09655 9.10334L8.6903 9.11186C8.4474 10.7781 7.07098 12.1204 4.99569 12.1204C2.69456 12.1204 0.998535 10.4542 0.998535 7.63743C0.998535 4.81641 2.71586 3.15448 4.99569 3.15448ZM15.8464 3.15448C18.1348 3.15448 19.8564 4.81641 19.8564 7.63743C19.8564 10.4585 18.1348 12.1204 15.8464 12.1204C13.5538 12.1204 11.8365 10.4542 11.8365 7.63743C11.8365 4.81641 13.5538 3.15448 15.8464 3.15448ZM15.8464 10.7014C17.2697 10.7014 18.2669 9.62323 18.2669 7.63743C18.2669 5.65164 17.2697 4.57351 15.8464 4.57351C14.4274 4.57351 13.426 5.65164 13.426 7.63743C13.426 9.62323 14.4274 10.7014 15.8464 10.7014ZM28.8705 3.27379H30.4429V12.0011H29.0367L24.9245 6.05646H24.852V12.0011H23.2711V3.27379H24.6858L28.7938 9.22266H28.8705V3.27379ZM39.685 3.27379H41.2575V12.0011H39.8512L35.739 6.05646H35.6666V12.0011H34.0856V3.27379H35.5004L39.6083 9.22266H39.685V3.27379ZM50.6104 12.0011H44.9001V3.27379H50.5763V4.59908H46.4811V6.9684H50.2822V8.29368H46.4811V10.6758H50.6104V12.0011ZM57.8848 3.15448C59.8194 3.15448 61.3109 4.27948 61.5794 6.2184H59.9856C59.8024 5.17436 58.9714 4.57351 57.9103 4.57351C56.4828 4.57351 55.4771 5.66868 55.4771 7.63743C55.4771 9.64027 56.4913 10.7014 57.9061 10.7014C58.9501 10.7014 59.7853 10.1261 59.9856 9.10334L61.5794 9.11186C61.3365 10.7781 59.96 12.1204 57.8848 12.1204C55.5836 12.1204 53.8876 10.4542 53.8876 7.63743C53.8876 4.81641 55.6049 3.15448 57.8848 3.15448ZM67.2611 4.59908H64.5636V3.27379H71.5267V4.59908H68.8293V12.0011H67.2611V4.59908ZM81.9995 4.59908H79.3021V3.27379H86.2651V4.59908H83.5677V12.0011H81.9995V4.59908ZM92.9408 3.15448C95.2292 3.15448 96.9508 4.81641 96.9508 7.63743C96.9508 10.4585 95.2292 12.1204 92.9408 12.1204C90.6482 12.1204 88.9309 10.4542 88.9309 7.63743C88.9309 4.81641 90.6482 3.15448 92.9408 3.15448ZM92.9408 10.7014C94.3641 10.7014 95.3613 9.62323 95.3613 7.63743C95.3613 5.65164 94.3641 4.57351 92.9408 4.57351C91.5218 4.57351 90.5204 5.65164 90.5204 7.63743C90.5204 9.62323 91.5218 10.7014 92.9408 10.7014ZM146.193 12.0012H144.919C144.899 12.001 144.88 11.9961 144.862 11.9868C144.845 11.9775 144.83 11.9642 144.818 11.9479C144.807 11.9316 144.799 11.9128 144.797 11.8931C144.794 11.8734 144.796 11.8533 144.803 11.8345L148.176 3.12119C148.19 3.08471 148.216 3.05359 148.249 3.0321C148.281 3.01061 148.32 2.99982 148.359 3.00119H149.954C149.992 3.00152 150.029 3.01311 150.06 3.03449C150.091 3.05586 150.115 3.08605 150.129 3.12119L153.493 11.8345C153.499 11.8533 153.501 11.8734 153.499 11.8931C153.496 11.9128 153.489 11.9316 153.477 11.9479C153.466 11.9642 153.451 11.9775 153.433 11.9868C153.415 11.9961 153.396 12.001 153.376 12.0012H152.103C152.077 12.0013 152.052 11.9937 152.031 11.9795C152.01 11.9652 151.994 11.9449 151.984 11.9212L149.266 4.75452C149.257 4.73039 149.241 4.70954 149.22 4.69481C149.199 4.68008 149.174 4.67217 149.148 4.67217C149.123 4.67217 149.098 4.68008 149.077 4.69481C149.056 4.70954 149.04 4.73039 149.031 4.75452L146.313 11.9212C146.303 11.9451 146.287 11.9656 146.265 11.9799C146.244 11.9942 146.218 12.0016 146.193 12.0012ZM159.802 8.56701L162.332 11.7987C162.346 11.8167 162.355 11.8382 162.358 11.8608C162.36 11.8835 162.357 11.9065 162.347 11.9273C162.338 11.948 162.323 11.9658 162.304 11.9787C162.285 11.9916 162.263 11.9991 162.241 12.0003H161.327C161.134 12.0014 160.943 11.9577 160.77 11.8727C160.596 11.7877 160.445 11.6637 160.327 11.5103L158.132 8.64535H156.744V11.887C156.743 11.92 156.73 11.9516 156.707 11.9749C156.683 11.9983 156.652 12.0116 156.619 12.012H155.416C155.382 12.012 155.351 11.9988 155.327 11.9754C155.304 11.952 155.291 11.9202 155.291 11.887V7.55368C155.291 7.50402 155.31 7.45637 155.345 7.42109C155.38 7.38582 155.428 7.36579 155.477 7.36535H158.859C160.054 7.36535 160.607 6.73868 160.607 5.86535C160.607 4.99201 160.041 4.38701 158.859 4.38701H156.491C156.333 4.38701 156.177 4.35598 156.031 4.29567C155.886 4.23536 155.753 4.14697 155.642 4.03554C155.531 3.92411 155.442 3.79183 155.382 3.64623C155.322 3.50064 155.291 3.3446 155.291 3.18701C155.291 3.13751 155.31 3.09003 155.345 3.05502C155.38 3.02001 155.428 3.00035 155.477 3.00035H159.006C160.961 3.00035 162.066 4.15701 162.066 5.85535C162.066 7.33368 161.231 8.29701 159.802 8.56701ZM142.387 3.00035H136.804C136.76 3.00035 136.718 3.01791 136.686 3.04916C136.655 3.08042 136.637 3.12281 136.637 3.16701C136.637 3.49102 136.766 3.80176 136.995 4.03086C137.224 4.25997 137.535 4.38868 137.859 4.38868H142.387C142.404 4.38891 142.42 4.38583 142.436 4.37962C142.451 4.37342 142.465 4.36422 142.476 4.35257C142.488 4.34092 142.497 4.32705 142.503 4.31178C142.51 4.29651 142.513 4.28016 142.512 4.26368V3.12535C142.512 3.0922 142.499 3.0604 142.476 3.03696C142.452 3.01352 142.421 3.00035 142.387 3.00035ZM142.387 10.612H138.221C138.188 10.6116 138.156 10.5983 138.133 10.5749C138.11 10.5516 138.096 10.52 138.096 10.487V8.23035C138.096 8.1972 138.109 8.1654 138.132 8.14196C138.156 8.11852 138.188 8.10535 138.221 8.10535H142.072C142.106 8.10535 142.137 8.09218 142.161 8.06874C142.184 8.04529 142.197 8.0135 142.197 7.98035V6.83368C142.197 6.80053 142.184 6.76873 142.161 6.74529C142.137 6.72185 142.106 6.70868 142.072 6.70868H136.824C136.774 6.70912 136.727 6.72916 136.692 6.76443C136.657 6.7997 136.637 6.84735 136.637 6.89701V11.807C136.637 11.8565 136.657 11.904 136.692 11.939C136.727 11.974 136.775 11.9937 136.824 11.9937H142.387C142.421 11.9937 142.452 11.9805 142.476 11.9571C142.499 11.9336 142.512 11.9018 142.512 11.8687V10.7303C142.511 10.6982 142.497 10.6679 142.474 10.6458C142.451 10.6237 142.42 10.6116 142.387 10.612Z" fill="white"/>
</svg>
