<svg width="175" height="18" viewBox="0 0 175 18" fill="none" xmlns="http://www.w3.org/2000/svg">
<path fill-rule="evenodd" clip-rule="evenodd" d="M116.211 6.50002L120.008 0.914036C120.181 0.634766 120.424 0.404124 120.712 0.244117C121.001 0.0841096 121.326 7.6864e-05 121.656 3.75424e-05C121.912 -0.00154465 122.164 0.0468983 122.401 0.142578C122.637 0.238258 122.851 0.379285 123.032 0.557545C123.213 0.735805 123.357 0.947778 123.455 1.18127C123.553 1.41475 123.603 1.66515 123.603 1.91803V16.08C123.603 16.3319 123.553 16.5813 123.456 16.814C123.359 17.0467 123.216 17.2581 123.037 17.4362C122.857 17.6143 122.644 17.7556 122.409 17.852C122.174 17.9484 121.923 17.998 121.669 17.998H121.265C120.983 17.9982 120.705 17.9374 120.45 17.8199C120.194 17.7025 119.968 17.5312 119.786 17.318L108.488 3.91803C108.468 3.89482 108.441 3.87822 108.411 3.87045C108.382 3.86268 108.35 3.8641 108.321 3.87454C108.292 3.88498 108.267 3.90392 108.249 3.92885C108.231 3.95377 108.222 3.98349 108.221 4.01403V14.062C108.221 14.091 108.229 14.1195 108.245 14.144C108.26 14.1685 108.283 14.1879 108.309 14.1998C108.336 14.2117 108.366 14.2156 108.394 14.2111C108.423 14.2065 108.45 14.1936 108.472 14.174L112.208 10.974C112.281 10.903 112.378 10.8619 112.48 10.8589C112.582 10.8559 112.681 10.8913 112.758 10.9579C112.834 11.0246 112.883 11.1175 112.893 11.2181C112.903 11.3187 112.875 11.4194 112.813 11.5L109.016 17.086C108.843 17.3653 108.601 17.5959 108.312 17.7559C108.024 17.9159 107.699 18 107.368 18C106.855 18 106.363 17.7979 106 17.4382C105.637 17.0785 105.433 16.5907 105.433 16.082V1.91803C105.433 1.40935 105.637 0.921499 106 0.561805C106.363 0.202111 106.855 3.75424e-05 107.368 3.75424e-05H107.761C108.044 0.0016468 108.322 0.0644216 108.577 0.183961C108.832 0.303501 109.058 0.476912 109.238 0.692036L120.537 14.092C120.557 14.1152 120.583 14.1318 120.613 14.1396C120.643 14.1474 120.674 14.1459 120.703 14.1355C120.732 14.1251 120.757 14.1061 120.775 14.0812C120.793 14.0563 120.803 14.0265 120.803 13.996V3.93803C120.804 3.90906 120.796 3.88056 120.78 3.85606C120.764 3.83157 120.742 3.81215 120.715 3.80023C120.689 3.7883 120.659 3.78439 120.63 3.78897C120.601 3.79356 120.574 3.80645 120.553 3.82603L116.816 7.02602C116.744 7.09704 116.647 7.13818 116.545 7.14117C116.443 7.14416 116.344 7.10877 116.267 7.04213C116.19 6.97548 116.142 6.88253 116.131 6.78195C116.121 6.68138 116.15 6.58065 116.211 6.50002ZM154.864 14.4012H153.322C153.298 14.401 153.275 14.395 153.253 14.3839C153.232 14.3728 153.214 14.3568 153.2 14.3372C153.186 14.3177 153.177 14.2951 153.174 14.2715C153.171 14.2478 153.173 14.2237 153.181 14.2012L157.265 3.74521C157.282 3.70144 157.313 3.66409 157.353 3.63831C157.392 3.61252 157.439 3.59957 157.487 3.60121H159.418C159.463 3.60161 159.508 3.61552 159.546 3.64117C159.583 3.66682 159.612 3.70305 159.629 3.74521L163.701 14.2012C163.709 14.2237 163.711 14.2478 163.708 14.2715C163.705 14.2951 163.696 14.3177 163.682 14.3372C163.668 14.3568 163.65 14.3728 163.629 14.3839C163.607 14.395 163.584 14.401 163.56 14.4012H162.018C161.987 14.4013 161.957 14.3922 161.932 14.3751C161.906 14.358 161.886 14.3336 161.875 14.3052L158.584 5.70521C158.574 5.67625 158.554 5.65123 158.529 5.63355C158.503 5.61587 158.473 5.60639 158.442 5.60639C158.411 5.60639 158.381 5.61587 158.355 5.63355C158.33 5.65123 158.31 5.67625 158.3 5.70521L155.009 14.3052C154.998 14.3339 154.978 14.3585 154.952 14.3757C154.926 14.3928 154.895 14.4017 154.864 14.4012ZM139.976 14.2515V3.75156C139.975 3.71359 139.961 3.67714 139.935 3.64938C139.908 3.62162 139.873 3.60456 139.835 3.60156H138.378C138.338 3.60156 138.299 3.61737 138.271 3.6455C138.242 3.67363 138.227 3.71178 138.227 3.75156V8.12155L138.382 11.9335L133.382 4.28556C133.245 4.07569 133.056 3.90321 132.834 3.78377C132.612 3.66432 132.364 3.6017 132.111 3.60156H131.016C130.976 3.60208 130.938 3.61805 130.909 3.64607C130.881 3.67409 130.865 3.71194 130.864 3.75156V14.2515C130.865 14.2912 130.881 14.329 130.909 14.357C130.938 14.3851 130.976 14.401 131.016 14.4015H132.472C132.512 14.401 132.551 14.3851 132.579 14.357C132.607 14.329 132.623 14.2912 132.624 14.2515V9.88155L132.452 6.05556L137.452 13.7155C137.589 13.9262 137.777 14.0993 137.999 14.2192C138.221 14.339 138.47 14.4017 138.723 14.4015H139.824C139.864 14.401 139.903 14.3851 139.931 14.357C139.959 14.329 139.975 14.2912 139.976 14.2515ZM4.13778 5.15341C6.24716 5.15341 7.80256 6.34659 8.01562 8.43466H5.88494C5.77841 7.56108 5.15199 7.00284 4.19318 7.00284C2.91903 7.00284 2.15199 7.97017 2.15199 9.63636C2.15199 11.3707 2.93608 12.2699 4.1804 12.2699C5.10511 12.2699 5.7358 11.7713 5.88494 10.9318L8.01562 10.9446C7.85795 12.4915 6.53267 14.1193 4.13778 14.1193C1.76847 14.1193 0 12.5085 0 9.63636C0 6.75142 1.81108 5.15341 4.13778 5.15341ZM15.2123 5.15341C17.556 5.15341 19.3799 6.75142 19.3799 9.63636C19.3799 12.5213 17.556 14.1193 15.2123 14.1193C12.86 14.1193 11.0489 12.5085 11.0489 9.63636C11.0489 6.75142 12.86 5.15341 15.2123 5.15341ZM15.2123 12.2699C16.4736 12.2699 17.2236 11.3452 17.2236 9.63636C17.2236 7.92756 16.4736 7.00284 15.2123 7.00284C13.9552 7.00284 13.2009 7.92756 13.2009 9.63636C13.2009 11.3452 13.9552 12.2699 15.2123 12.2699ZM27.8538 5.27273H29.959V14H28.1692L24.6962 8.96307H24.6408V14H22.5314V5.27273H24.3467L27.7814 10.3011H27.8538V5.27273ZM38.5278 5.27273H40.6329V14H38.8431L35.3701 8.96307H35.3147V14H33.2053V5.27273H35.0207L38.4553 10.3011H38.5278V5.27273ZM49.9644 14H43.8792V5.27273H49.9644V6.9858H45.9886V8.77557H49.6534V10.4929H45.9886V12.2869H49.9644V14ZM57.2495 5.15341C59.3589 5.15341 60.9143 6.34659 61.1273 8.43466H58.9967C58.8901 7.56108 58.2637 7.00284 57.3049 7.00284C56.0308 7.00284 55.2637 7.97017 55.2637 9.63636C55.2637 11.3707 56.0478 12.2699 57.2921 12.2699C58.2168 12.2699 58.8475 11.7713 58.9967 10.9318L61.1273 10.9446C60.9697 12.4915 59.6444 14.1193 57.2495 14.1193C54.8802 14.1193 53.1117 12.5085 53.1117 9.63636C53.1117 6.75142 54.9228 5.15341 57.2495 5.15341ZM66.6194 6.9858H63.9689V5.27273H71.3453V6.9858H68.699V14H66.6194V6.9858ZM81.1587 6.9858H78.5081V5.27273H85.8845V6.9858H83.2382V14H81.1587V6.9858ZM92.5059 5.15341C94.8496 5.15341 96.6735 6.75142 96.6735 9.63636C96.6735 12.5213 94.8496 14.1193 92.5059 14.1193C90.1536 14.1193 88.3425 12.5085 88.3425 9.63636C88.3425 6.75142 90.1536 5.15341 92.5059 5.15341ZM92.5059 12.2699C93.7672 12.2699 94.5172 11.3452 94.5172 9.63636C94.5172 7.92756 93.7672 7.00284 92.5059 7.00284C91.2487 7.00284 90.4945 7.92756 90.4945 9.63636C90.4945 11.3452 91.2487 12.2699 92.5059 12.2699ZM171.339 10.2815L174.401 14.1595C174.418 14.1811 174.429 14.2069 174.432 14.2341C174.435 14.2613 174.431 14.2889 174.42 14.3138C174.408 14.3388 174.39 14.3601 174.367 14.3756C174.345 14.3911 174.318 14.4 174.29 14.4015H173.185C172.951 14.4028 172.72 14.3504 172.51 14.2483C172.3 14.1463 172.116 13.9975 171.974 13.8135L169.317 10.3755H167.636V14.2655C167.636 14.3052 167.62 14.343 167.592 14.371C167.563 14.3991 167.525 14.415 167.485 14.4155H166.028C165.988 14.4155 165.95 14.3997 165.921 14.3716C165.893 14.3435 165.877 14.3053 165.877 14.2655V9.06555C165.877 9.00596 165.901 8.94877 165.943 8.90645C165.985 8.86412 166.043 8.84008 166.103 8.83955H170.197C171.643 8.83955 172.313 8.08755 172.313 7.03956C172.313 5.99156 171.627 5.26556 170.197 5.26556H167.33C167.139 5.26556 166.95 5.22831 166.774 5.15595C166.598 5.08358 166.437 4.97751 166.303 4.84379C166.168 4.71008 166.061 4.55133 165.988 4.37663C165.915 4.20192 165.877 4.01467 165.877 3.82556C165.877 3.76615 165.901 3.70918 165.943 3.66717C165.986 3.62516 166.043 3.60156 166.103 3.60156H170.374C172.741 3.60156 174.078 4.98956 174.078 7.02755C174.078 8.80155 173.068 9.95755 171.339 10.2815ZM150.258 3.60156H143.499C143.445 3.60156 143.394 3.62263 143.356 3.66014C143.318 3.69765 143.297 3.74852 143.297 3.80156C143.297 4.19037 143.453 4.56325 143.73 4.83818C144.008 5.11311 144.384 5.26756 144.776 5.26756H150.258C150.278 5.26783 150.298 5.26413 150.316 5.25669C150.335 5.24925 150.351 5.23821 150.365 5.22422C150.38 5.21024 150.391 5.1936 150.398 5.17528C150.406 5.15696 150.409 5.13733 150.409 5.11756V3.75156C150.409 3.71178 150.393 3.67363 150.365 3.6455C150.336 3.61737 150.298 3.60156 150.258 3.60156ZM150.258 12.7355H145.214C145.174 12.735 145.136 12.7191 145.107 12.691C145.079 12.663 145.063 12.6252 145.063 12.5855V9.87755C145.063 9.83777 145.079 9.79961 145.107 9.77148C145.135 9.74335 145.174 9.72755 145.214 9.72755H149.876C149.917 9.72755 149.955 9.71175 149.983 9.68362C150.012 9.65549 150.028 9.61733 150.028 9.57755V8.20155C150.028 8.16177 150.012 8.12362 149.983 8.09549C149.955 8.06736 149.917 8.05155 149.876 8.05155H143.523C143.463 8.05208 143.406 8.07612 143.363 8.11845C143.321 8.16078 143.297 8.21796 143.297 8.27755V14.1695C143.297 14.2289 143.321 14.2859 143.363 14.3279C143.406 14.3699 143.463 14.3935 143.523 14.3935H150.258C150.298 14.3935 150.336 14.3777 150.365 14.3496C150.393 14.3215 150.409 14.2833 150.409 14.2435V12.8775C150.408 12.839 150.391 12.8026 150.363 12.776C150.334 12.7495 150.297 12.735 150.258 12.7355Z" fill="url(#paint0_linear_78_9897)"/>
<defs>
<linearGradient id="paint0_linear_78_9897" x1="-5.66336e-06" y1="-1.87499" x2="122.029" y2="98.1477" gradientUnits="userSpaceOnUse">
<stop stop-color="#0085FF"/>
<stop offset="1" stop-color="#FF5963"/>
</linearGradient>
</defs>
</svg>
