<svg width="19" height="16" viewBox="0 0 19 16" fill="none" xmlns="http://www.w3.org/2000/svg">
<path d="M11.9202 0.519531L12.432 0.581136C12.432 0.581136 14.7284 0.832144 16.4055 2.17894H16.4252L16.4462 2.1986C16.8223 2.54463 16.9862 2.96997 17.2451 3.59192C17.5502 4.3402 17.81 5.10619 18.023 5.88572C18.5093 7.64409 18.9038 9.77405 18.9038 11.7225V11.8863L18.8219 12.0502C18.215 13.1151 17.1376 13.7935 16.1388 14.262C15.1407 14.7306 14.2775 14.979 13.6811 14.9993L13.2919 15.0197L13.0874 14.6717L12.3704 13.4015C11.6102 13.5732 10.7346 13.6886 9.72859 13.6886C8.72259 13.6886 7.84701 13.5732 7.08678 13.4015L6.3698 14.6717L6.16467 15.0197L5.77604 14.9993C5.17965 14.979 4.31652 14.7306 3.31839 14.262C2.3196 13.7935 1.24217 13.1151 0.635292 12.0502L0.55337 11.8863V11.7225C0.55337 9.77405 0.947905 7.64409 1.43419 5.88572C1.64718 5.10619 1.90697 4.3402 2.21212 3.59192C2.47099 2.96931 2.63483 2.54463 3.01102 2.19925L3.03133 2.17828H3.05231C4.7281 0.832144 7.02518 0.581136 7.02518 0.581136L7.53702 0.519531L7.72184 0.990744C7.72184 0.990744 7.91124 1.46917 8.02855 2.01509C8.59198 1.93736 9.15984 1.8962 9.72859 1.89188C10.0792 1.89188 10.6854 1.91482 11.4286 2.01509C11.5466 1.46917 11.736 0.990744 11.736 0.990744L11.9202 0.519531ZM12.8213 2.01509C12.7931 2.10684 12.7649 2.18614 12.7394 2.26086C13.5868 2.47058 14.4905 2.7904 15.3196 3.30487L14.6236 4.41114C12.9235 3.35598 10.4816 3.20263 9.72859 3.20263C8.97622 3.20263 6.53365 3.35598 4.83361 4.41114L4.1376 3.30487C4.96665 2.7904 5.87041 2.47058 6.71781 2.2602C6.69225 2.18614 6.66407 2.10684 6.63589 2.01444C6.02442 2.13765 4.85655 2.41946 3.89184 3.18231C3.89708 3.18493 3.64607 3.56374 3.42063 4.10377C3.18993 4.65952 2.93434 5.39944 2.70365 6.23373C2.26062 7.83349 1.91261 9.78192 1.88443 11.497C2.29732 12.1268 3.06214 12.695 3.87152 13.0745C4.37912 13.3144 4.91613 13.4862 5.46867 13.5857L5.79635 13.0332C5.60171 12.9611 5.40968 12.8825 5.24322 12.8078C4.2346 12.3647 3.68671 11.8863 3.68671 11.8863L4.54721 10.9033C4.54721 10.9033 4.91553 11.2414 5.77604 11.6202C6.63523 11.999 7.94925 12.3778 9.72859 12.3778C11.5079 12.3778 12.8213 11.999 13.6811 11.6202C14.5416 11.2414 14.91 10.9033 14.91 10.9033L15.7705 11.8863C15.7705 11.8863 15.2226 12.3647 14.214 12.8078C14.0475 12.8825 13.8555 12.9618 13.6608 13.0332L13.9885 13.5864C14.5413 13.4865 15.0786 13.3142 15.5863 13.0739C16.395 12.695 17.1605 12.1268 17.5721 11.497C17.5446 9.78192 17.1966 7.83349 16.7529 6.23373C16.5568 5.51008 16.3176 4.79882 16.0366 4.10377C15.8111 3.56374 15.5601 3.18493 15.5653 3.18231C14.6006 2.41946 13.4328 2.13765 12.8213 2.01509ZM12.0224 6.47949C12.529 6.47949 12.9773 6.76851 13.2512 7.13486C13.5252 7.50122 13.6608 7.95146 13.6608 8.44561C13.6608 8.93976 13.5252 9.39 13.2512 9.75636C12.9773 10.1227 12.529 10.4117 12.0224 10.4117C11.5158 10.4117 11.0675 10.1227 10.7936 9.75636C10.5196 9.39 10.384 8.93976 10.384 8.44561C10.384 7.95146 10.5196 7.50122 10.7936 7.13486C11.0675 6.76851 11.5158 6.47949 12.0224 6.47949ZM7.43478 6.47949C7.94139 6.47949 8.38966 6.76851 8.66361 7.13486C8.93755 7.50122 9.07322 7.95146 9.07322 8.44561C9.07322 8.93976 8.93755 9.39 8.66361 9.75636C8.38966 10.1227 7.94139 10.4117 7.43478 10.4117C6.92818 10.4117 6.47991 10.1227 6.20596 9.75636C5.93201 9.39 5.79635 8.93976 5.79635 8.44561C5.79635 7.95146 5.93201 7.50122 6.20596 7.13486C6.47991 6.76851 6.92818 6.47949 7.43478 6.47949ZM12.0224 7.79024C11.9863 7.79024 11.9405 7.80334 11.8586 7.91345C11.7766 8.02289 11.6947 8.21492 11.6947 8.44561C11.6947 8.6763 11.7766 8.86833 11.8586 8.97843C11.9405 9.08788 11.9863 9.10098 12.0224 9.10098C12.0584 9.10098 12.1043 9.08788 12.1862 8.97777C12.2946 8.82162 12.3519 8.63568 12.3501 8.44561C12.3501 8.21492 12.2682 8.0229 12.1862 7.91279C12.1043 7.80335 12.0584 7.79024 12.0224 7.79024ZM7.43478 7.79024C7.39874 7.79024 7.35286 7.80334 7.27094 7.91345C7.18902 8.02289 7.1071 8.21492 7.1071 8.44561C7.1071 8.6763 7.18902 8.86833 7.27094 8.97843C7.35286 9.08788 7.39874 9.10098 7.43478 9.10098C7.47083 9.10098 7.51671 9.08788 7.59863 8.97777C7.70701 8.82162 7.76426 8.63568 7.76247 8.44561C7.76247 8.21492 7.68055 8.0229 7.59863 7.91279C7.51671 7.80335 7.47083 7.79024 7.43478 7.79024Z" fill="#000513"/>
</svg>
