<svg width="20" height="20" viewBox="0 0 20 20" fill="none" xmlns="http://www.w3.org/2000/svg">
<path fill-rule="evenodd" clip-rule="evenodd" d="M14.377 1H5.83735C2.86447 1 1 3.0815 1 6.0272V13.9728C1 16.9185 2.85657 19 5.83735 19H14.3721C17.3578 19 19.2134 16.9185 19.2134 13.9728V6.0272C19.2173 3.0815 17.3607 1 14.377 1Z" stroke="white" stroke-width="1.5" stroke-linecap="round" stroke-linejoin="round"/>
<path fill-rule="evenodd" clip-rule="evenodd" d="M8.85011 6.88652C8.85011 7.88143 8.03483 8.68711 7.02808 8.68711C6.02231 8.68711 5.20605 7.88143 5.20605 6.88652C5.20605 5.89162 6.02231 5.08594 7.02808 5.08594C8.03385 5.08691 8.84912 5.89259 8.85011 6.88652Z" stroke="white" stroke-width="1.5" stroke-linecap="round" stroke-linejoin="round"/>
<mask id="path-3-inside-1_78_9984" fill="white">
<path fill-rule="evenodd" clip-rule="evenodd" d="M19.9999 14.8985C19.0889 13.9719 16.5546 10.1016 14.6496 10.1016C12.7437 10.1016 11.4692 13.4354 9.63629 13.4354C7.8034 13.4354 6.3143 12.3635 4.84563 13.5603C3.37695 14.7562 3.2207 18.8001 3.2207 18.8001"/>
</mask>
<path d="M18.9303 15.9502C19.5111 16.5409 20.4608 16.549 21.0515 15.9682C21.6423 15.3874 21.6503 14.4377 21.0696 13.8469L18.9303 15.9502ZM4.84563 13.5603L5.79273 14.7235L5.79319 14.7231L4.84563 13.5603ZM1.72182 18.7422C1.68984 19.57 2.33498 20.267 3.16279 20.299C3.9906 20.331 4.6876 19.6859 4.71958 18.858L1.72182 18.7422ZM21.0696 13.8469C20.9103 13.6849 20.6458 13.3535 20.2177 12.8197C19.822 12.3263 19.3345 11.7229 18.8071 11.1432C18.2853 10.5697 17.6822 9.97146 17.0424 9.50696C16.4357 9.06649 15.6018 8.60156 14.6496 8.60156V11.6016C14.6354 11.6016 14.6814 11.5988 14.8026 11.6503C14.9234 11.7016 15.0828 11.7915 15.2799 11.9346C15.6795 12.2248 16.1241 12.6521 16.5879 13.1619C17.0461 13.6656 17.482 14.2036 17.8773 14.6965C18.2401 15.149 18.6341 15.6488 18.9303 15.9502L21.0696 13.8469ZM14.6496 8.60156C13.7172 8.60156 12.966 9.01237 12.4192 9.42309C11.8822 9.82641 11.3991 10.342 11.0243 10.7394C10.6075 11.1813 10.3036 11.5003 10.0113 11.7248C9.87538 11.8292 9.77726 11.8843 9.71187 11.9122C9.68093 11.9254 9.66071 11.931 9.65 11.9333C9.64461 11.9345 9.64112 11.935 9.63928 11.9352C9.63747 11.9354 9.63657 11.9354 9.63629 11.9354V14.9354C10.5662 14.9354 11.3094 14.5105 11.8384 14.1042C12.3601 13.7036 12.8376 13.1892 13.2069 12.7976C13.6181 12.3616 13.9255 12.0437 14.2208 11.8219C14.5062 11.6075 14.6291 11.6016 14.6496 11.6016V8.60156ZM9.63629 11.9354C9.32009 11.9354 8.99277 11.8892 8.60757 11.8143C8.27855 11.7502 7.75682 11.6305 7.32807 11.5659C6.33406 11.4159 5.09445 11.4226 3.89806 12.3975L5.79319 14.7231C6.06548 14.5012 6.30476 14.4455 6.88069 14.5323C7.23691 14.586 7.52291 14.6595 8.0345 14.759C8.4899 14.8477 9.03605 14.9354 9.63629 14.9354V11.9354ZM3.89853 12.3971C3.24563 12.9287 2.84187 13.677 2.58142 14.3215C2.31052 14.9918 2.1308 15.7127 2.00928 16.346C1.88648 16.9861 1.81535 17.5785 1.77472 18.0084C1.75428 18.2247 1.74127 18.4029 1.73328 18.5294C1.72927 18.5926 1.72652 18.6431 1.72471 18.6791C1.7238 18.6972 1.72313 18.7116 1.72266 18.7221C1.72243 18.7274 1.72225 18.7318 1.72211 18.7351C1.72204 18.7368 1.72198 18.7382 1.72193 18.7394C1.72191 18.74 1.72189 18.7405 1.72187 18.741C1.72186 18.7412 1.72185 18.7415 1.72184 18.7417C1.72183 18.7419 1.72182 18.7422 3.2207 18.8001C4.71958 18.858 4.71958 18.8583 4.71957 18.8585C4.71956 18.8586 4.71956 18.8588 4.71955 18.8589C4.71954 18.8591 4.71954 18.8593 4.71953 18.8594C4.71952 18.8596 4.71953 18.8595 4.71954 18.8593C4.71956 18.8587 4.71962 18.8573 4.71973 18.8549C4.71994 18.8501 4.72033 18.8416 4.72093 18.8297C4.72212 18.8059 4.72416 18.7683 4.72729 18.7187C4.73358 18.6193 4.74425 18.4723 4.76141 18.2907C4.79597 17.925 4.8557 17.4317 4.95554 16.9113C5.05667 16.3842 5.19139 15.8699 5.36286 15.4456C5.54476 14.9955 5.71129 14.7898 5.79273 14.7235L3.89853 12.3971Z" fill="white" mask="url(#path-3-inside-1_78_9984)"/>
</svg>
