<svg width="16" height="16" viewBox="0 0 16 16" fill="none" xmlns="http://www.w3.org/2000/svg">
<path d="M8.05478 4.18922C5.91481 4.18922 4.18775 5.91631 4.18775 8.05632C4.18775 10.1963 5.91481 11.9234 8.05478 11.9234C10.1948 11.9234 11.9218 10.1963 11.9218 8.05632C11.9218 5.91631 10.1948 4.18922 8.05478 4.18922ZM8.05478 10.5697C6.67087 10.5697 5.5415 9.44026 5.5415 8.05632C5.5415 6.67238 6.67087 5.54299 8.05478 5.54299C9.43869 5.54299 10.5681 6.67238 10.5681 8.05632C10.5681 9.44026 9.43869 10.5697 8.05478 10.5697ZM12.0802 3.12958C11.5805 3.12958 11.1771 3.53307 11.1771 4.03272C11.1771 4.53237 11.5805 4.93586 12.0802 4.93586C12.5798 4.93586 12.9833 4.53426 12.9833 4.03272C12.9835 3.91408 12.9602 3.79657 12.9149 3.68693C12.8695 3.57729 12.803 3.47767 12.7191 3.39378C12.6352 3.30988 12.5356 3.24336 12.426 3.19803C12.3163 3.15269 12.1988 3.12943 12.0802 3.12958ZM15.5928 8.05632C15.5928 7.01554 15.6022 5.98419 15.5437 4.94529C15.4853 3.73859 15.21 2.66764 14.3276 1.78524C13.4434 0.900957 12.3743 0.627564 11.1676 0.569114C10.1269 0.510665 9.09554 0.520092 8.05667 0.520092C7.01591 0.520092 5.98457 0.510665 4.9457 0.569114C3.73902 0.627564 2.66809 0.902843 1.78571 1.78524C0.901438 2.66953 0.62805 3.73859 0.569602 4.94529C0.511153 5.98607 0.52058 7.01742 0.52058 8.05632C0.52058 9.09521 0.511153 10.1285 0.569602 11.1673C0.62805 12.374 0.903324 13.445 1.78571 14.3274C2.66998 15.2117 3.73902 15.4851 4.9457 15.5435C5.98646 15.602 7.01779 15.5925 8.05667 15.5925C9.09743 15.5925 10.1288 15.602 11.1676 15.5435C12.3743 15.4851 13.4452 15.2098 14.3276 14.3274C15.2119 13.4431 15.4853 12.374 15.5437 11.1673C15.6041 10.1285 15.5928 9.0971 15.5928 8.05632ZM13.9336 12.5023C13.7959 12.8454 13.63 13.1018 13.3642 13.3658C13.0983 13.6317 12.8438 13.7976 12.5006 13.9352C11.5089 14.3293 9.15399 14.2407 8.05478 14.2407C6.95557 14.2407 4.59878 14.3293 3.60704 13.9371C3.26389 13.7995 3.00747 13.6335 2.74351 13.3677C2.47766 13.1018 2.31174 12.8473 2.17411 12.5041C1.78194 11.5105 1.87055 9.15555 1.87055 8.05632C1.87055 6.95709 1.78194 4.60025 2.17411 3.60849C2.31174 3.26534 2.47766 3.00891 2.74351 2.74495C3.00936 2.48098 3.26389 2.31318 3.60704 2.17554C4.59878 1.78336 6.95557 1.87197 8.05478 1.87197C9.15399 1.87197 11.5108 1.78336 12.5025 2.17554C12.8457 2.31318 13.1021 2.4791 13.3661 2.74495C13.6319 3.0108 13.7978 3.26534 13.9355 3.60849C14.3276 4.60025 14.239 6.95709 14.239 8.05632C14.239 9.15555 14.3276 11.5105 13.9336 12.5023Z" fill="#000513"/>
</svg>
