<svg width="17" height="17" viewBox="0 0 17 17" fill="none" xmlns="http://www.w3.org/2000/svg">
<path d="M11.3335 5.66602C12.4607 5.66602 13.5417 6.11378 14.3387 6.91081C15.1357 7.70784 15.5835 8.78885 15.5835 9.91602V14.8743H12.7502V9.91602C12.7502 9.54029 12.6009 9.17996 12.3352 8.91428C12.0696 8.6486 11.7092 8.49935 11.3335 8.49935C10.9578 8.49935 10.5974 8.6486 10.3318 8.91428C10.0661 9.17996 9.91683 9.54029 9.91683 9.91602V14.8743H7.0835V9.91602C7.0835 8.78885 7.53126 7.70784 8.32829 6.91081C9.12532 6.11378 10.2063 5.66602 11.3335 5.66602V5.66602Z" stroke="black" stroke-linecap="round" stroke-linejoin="round"/>
<path d="M4.24984 6.375H1.4165V14.875H4.24984V6.375Z" stroke="black" stroke-linecap="round" stroke-linejoin="round"/>
<path d="M2.83317 4.24935C3.61557 4.24935 4.24984 3.61509 4.24984 2.83268C4.24984 2.05028 3.61557 1.41602 2.83317 1.41602C2.05077 1.41602 1.4165 2.05028 1.4165 2.83268C1.4165 3.61509 2.05077 4.24935 2.83317 4.24935Z" stroke="black" stroke-linecap="round" stroke-linejoin="round"/>
</svg>
