<svg width="183" height="32" viewBox="0 0 183 32" fill="none" xmlns="http://www.w3.org/2000/svg">
<path d="M73.3984 30.353V7.46383V1.60059H70.6122V7.16315V20.4306L56.6811 1.60059H51.3687V8.89205V22.9112V29.6765H53.932V22.9112V7.0504L71.4295 30.353H73.3984Z" fill="white"/>
<path d="M92.965 17.8373H86.2409L89.5472 9.531L92.965 17.8373ZM104.036 30.353L91.9248 1.60059H90.0673L78.328 30.353H81.5229L85.3122 20.393H93.968L95.7884 24.8656C95.7884 24.8656 96.4199 26.2939 98.0174 30.353H104.036Z" fill="white"/>
<path d="M129.872 24.4146C129.798 24.2267 129.501 24.1139 128.201 24.3394L129.649 23.7381C129.427 23.5126 129.092 23.2871 128.869 23.0616L119.508 13.4022L123.297 9.94443L123.891 9.2679C124.523 8.70413 125.006 8.17794 125.489 7.72692L131.99 1.60059H128.238L121.105 8.10277C120.994 8.21553 120.919 8.2907 120.882 8.40345L114.492 14.3419V9.23032V1.60059H108.957V9.23032V22.5354V30.353H114.492V22.5354V17.95L115.421 17.048L122.517 24.1891C123.037 24.7529 123.483 25.2415 125.34 25.016L123.928 25.5797L128.312 30.353H135.965L129.649 23.926C129.649 24.0763 129.724 24.2267 129.872 24.377V24.4146Z" fill="white"/>
<path d="M150.33 28.7369C152.113 27.3462 153.153 25.4294 153.413 23.024C153.562 21.483 153.376 20.0924 152.819 18.7769C152.299 17.5366 151.482 16.4842 150.441 15.6949C149.476 14.9808 147.952 14.0036 145.835 12.7257C143.68 11.4478 142.268 10.3955 141.6 9.56858C140.931 8.81689 140.671 7.99002 140.782 7.0504C140.857 6.2987 141.191 5.58458 141.86 4.98323C142.417 4.45704 143.309 4.15636 144.683 4.3067C146.058 4.45704 147.209 5.0584 148.138 6.18594C148.398 6.44904 148.584 6.74972 149.29 7.87726L151.444 6.07319C150.07 4.15636 149.067 3.17915 147.99 2.65296C146.986 2.16436 145.872 1.82609 144.72 1.71334C142.603 1.48783 140.708 1.97643 139.148 3.17915C137.55 4.41945 136.659 6.11077 136.436 8.17794C136.287 9.49341 136.473 10.8089 137.03 12.0868C137.55 13.3271 138.331 14.417 139.408 15.2815C140.448 16.1084 141.934 17.048 143.903 18.1755C146.095 19.4158 147.432 20.4306 148.101 21.2575C148.733 22.0468 148.993 22.9488 148.881 24.0388C148.77 25.0911 148.287 25.9932 147.321 26.7825C146.429 27.5342 145.203 27.91 143.643 27.6845C141.265 27.3086 139.928 26.3314 137.439 22.6857L135.582 24.7153C137.513 27.91 140.931 30.0148 143.68 30.3154C146.281 30.6161 148.51 30.1275 150.33 28.7369Z" fill="white"/>
<path d="M183 30.353V1.60059H177.502V13.966H164.871V1.60059H159.373V30.353H164.871V16.5594H177.502V30.353H183Z" fill="white"/>
<g clip-path="url(#clip0_78_7332)">
<path d="M31.7693 0V15.8958C31.7693 17.8241 29.3544 18.5537 28.4421 16.886L19.8558 1.71987C19.3728 0.833876 18.2459 0.729642 17.6019 1.40717L0 20.0651V32H5.09811V16.1564C5.09811 14.228 7.45934 13.4984 8.4253 15.1661L17.3336 30.3322C17.8166 31.1661 18.9435 31.3225 19.5875 30.5928L36.9211 12.2476V0H31.7693Z" fill="white"/>
</g>
<defs>
<clipPath id="clip0_78_7332">
<rect width="36.9211" height="32" fill="white"/>
</clipPath>
</defs>
</svg>
