<svg width="146" height="24" viewBox="0 0 146 24" fill="none" xmlns="http://www.w3.org/2000/svg">
<path fill-rule="evenodd" clip-rule="evenodd" d="M126.519 11.241C127.047 11.5096 127.574 11.778 128.07 12.1051C129.441 13.0167 129.897 14.3956 129.651 15.9265C129.371 17.4924 127.988 19 125.317 19C124.297 19 123.313 18.7195 122.411 18.0418C121.45 17.3288 121.099 16.5459 121.099 15.1319C121.099 15.0968 121.134 15.0617 121.169 15.0617H123.125C123.16 15.0617 123.195 15.0968 123.195 15.1319C123.195 15.2604 123.219 15.5526 123.266 15.7045C123.535 16.5459 124.308 17.0834 125.305 17.1419C126.218 17.2003 127.132 16.6978 127.484 15.9732C127.871 15.1786 127.589 14.1736 126.699 13.6243C126.155 13.2886 125.002 12.6866 124.121 12.2265L124.12 12.2262L124.12 12.2261C123.56 11.9337 123.11 11.6987 122.996 11.6261C120.43 10.0367 120.864 5 125.632 5C126.558 5 127.425 5.30384 128.187 5.87646C128.984 6.47246 129.417 7.40733 129.511 8.52925C129.523 8.57597 129.488 8.61105 129.441 8.61105H127.636C127.601 8.61105 127.566 8.5876 127.566 8.55261C127.355 6.92817 125.375 6.48418 124.18 7.27882C123.348 7.83978 123.184 9.12521 123.981 9.7796C124.338 10.074 124.758 10.3004 125.176 10.5262L125.176 10.5263L125.176 10.5263C125.306 10.5962 125.435 10.6661 125.563 10.7379C125.877 10.9145 126.198 11.0778 126.519 11.241ZM42.2485 5.25586H43.1154H44.2637C44.2988 5.25586 44.3339 5.29092 44.3339 5.32597V18.8118C44.3339 18.8468 44.2988 18.8819 44.2637 18.8819H42.307C42.2719 18.8819 42.2367 18.8468 42.2367 18.8118V8.56302C42.2367 8.48122 42.1196 8.45786 42.0961 8.53966L40.4793 13.8569L40.3621 14.2308C40.3504 14.2541 40.327 14.2776 40.2919 14.2776H38.7922C38.757 14.2776 38.7335 14.2659 38.7218 14.2308L38.6047 13.8569L36.9879 8.53966C36.9644 8.46958 36.8473 8.48122 36.8473 8.56302V18.8118C36.8473 18.8468 36.8121 18.8819 36.7769 18.8819H34.8203C34.7852 18.8819 34.75 18.8468 34.75 18.8118V5.32597C34.75 5.29092 34.7852 5.25586 34.8203 5.25586H35.992H36.859H37.808C37.8431 5.25586 37.8666 5.26754 37.8783 5.3026L39.4834 10.5847C39.5069 10.6549 39.6006 10.6549 39.624 10.5847L41.2291 5.3026C41.2408 5.27923 41.2643 5.25586 41.2994 5.25586H42.2485ZM98.1114 5.25586C98.0762 5.25586 98.0527 5.27923 98.041 5.3026L96.4366 10.5847C96.4131 10.6549 96.3193 10.6549 96.2959 10.5847L94.6906 5.3026C94.6789 5.26754 94.6554 5.25586 94.6202 5.25586H91.6441C91.6089 5.25586 91.5737 5.29092 91.5737 5.32597V18.8118C91.5737 18.8468 91.6089 18.8819 91.6441 18.8819H93.6011C93.6363 18.8819 93.6715 18.8468 93.6715 18.8118V8.56302C93.6715 8.48122 93.7887 8.46958 93.8122 8.53966L95.4283 13.8569L95.5455 14.2308C95.5573 14.2659 95.5807 14.2776 95.6159 14.2776H97.1157C97.1509 14.2776 97.1743 14.2541 97.186 14.2308L97.3033 13.8569L98.9203 8.53966C98.9438 8.45786 99.061 8.48122 99.061 8.56302V18.8118C99.061 18.8468 99.0962 18.8819 99.1314 18.8819H101.088C101.123 18.8819 101.158 18.8468 101.158 18.8118V5.32597C101.158 5.29092 101.123 5.25586 101.088 5.25586H98.1114ZM69.2312 5.25586H72.875C72.9219 5.25586 72.9453 5.29092 72.9453 5.32597V7.00874C72.9453 7.04383 72.9102 7.07891 72.875 7.07891H69.3016V18.8118C69.3016 18.8468 69.2664 18.8819 69.2312 18.8819H67.2746C67.2394 18.8819 67.2044 18.8468 67.2044 18.8118V7.07891H63.6309C63.5957 7.07891 63.5605 7.04383 63.5605 7.00874V5.32597C63.5605 5.29092 63.5957 5.25586 63.6309 5.25586H67.2746H69.2312ZM84.4154 18.8817H86.1956C86.2425 18.8817 86.2777 18.835 86.266 18.7883L82.5873 5.25573C82.5755 5.22067 82.5521 5.20898 82.5169 5.20898H81.8376H80.6425H79.9629C79.9278 5.20898 79.9043 5.23236 79.8926 5.25573L76.2137 18.7883C76.202 18.835 76.2371 18.8817 76.284 18.8817H78.0649C78.1 18.8817 78.1235 18.8584 78.1352 18.835L79.2014 14.8968C79.213 14.8618 79.2365 14.85 79.2717 14.85H83.2087C83.2438 14.85 83.2673 14.8734 83.279 14.8968L84.345 18.835C84.3567 18.8584 84.3919 18.8817 84.4154 18.8817ZM79.7403 12.9219L81.1697 7.65135C81.1931 7.58128 81.2869 7.58128 81.3103 7.65135L82.7397 12.9219C82.7514 12.9686 82.7162 13.0153 82.6693 13.0153H79.8106C79.7637 13.0153 79.7286 12.9686 79.7403 12.9219ZM116.564 18.8817H114.784C114.749 18.8817 114.725 18.8584 114.714 18.835L113.648 14.8968C113.636 14.8734 113.612 14.85 113.577 14.85H109.641C109.605 14.85 109.582 14.8618 109.57 14.8968L108.504 18.835C108.493 18.8584 108.469 18.8817 108.434 18.8817H106.653C106.606 18.8817 106.571 18.835 106.582 18.7883L110.261 5.25573C110.273 5.23236 110.296 5.20898 110.331 5.20898H111.011H112.206H112.885C112.921 5.20898 112.944 5.22067 112.956 5.25573L116.635 18.7883C116.646 18.835 116.611 18.8817 116.564 18.8817ZM111.538 7.65135L110.109 12.9219C110.097 12.9686 110.132 13.0153 110.179 13.0153H113.038C113.085 13.0153 113.12 12.9686 113.108 12.9219L111.679 7.65135C111.655 7.58128 111.562 7.58128 111.538 7.65135ZM52.2779 16.8855V12.7019C52.2779 12.6669 52.313 12.6318 52.3482 12.6318H57.5619C57.5971 12.6318 57.6322 12.5967 57.6322 12.5616V10.8789C57.6322 10.8439 57.5971 10.8088 57.5619 10.8088H52.3482C52.313 10.8088 52.2779 10.7737 52.2779 10.7386V7.16272C52.2779 7.12764 52.313 7.09255 52.3482 7.09255H58.2766C58.3118 7.09255 58.347 7.05747 58.347 7.02248V5.33965C58.347 5.3046 58.3118 5.26953 58.2766 5.26953H52.2779H50.251C50.2158 5.26953 50.1807 5.3046 50.1807 5.33965V7.09255V10.8204V12.6435V16.9673V18.8137C50.1807 18.8488 50.2158 18.8839 50.251 18.8839H52.2779H58.5226C58.5578 18.8839 58.593 18.8488 58.593 18.8137V17.0375C58.593 17.0024 58.5578 16.9673 58.5226 16.9673H52.3365C52.3013 16.9557 52.2779 16.9323 52.2779 16.8855ZM139.177 11.7904L145.949 18.767C145.996 18.8021 145.961 18.8839 145.914 18.8956H143.418C143.407 18.8956 143.383 18.8839 143.371 18.8722L137.514 12.8421C137.479 12.7954 137.397 12.8305 137.397 12.8889V18.8255C137.397 18.8605 137.361 18.8956 137.326 18.8956H135.369C135.334 18.8956 135.299 18.8605 135.299 18.8255V5.33965C135.299 5.3046 135.334 5.26953 135.369 5.26953H137.326C137.361 5.26953 137.397 5.3046 137.397 5.33965V10.5984C137.397 10.6568 137.467 10.6919 137.514 10.6452L142.681 5.29291V5.2929C142.692 5.28121 142.704 5.26953 142.727 5.26953H145.223C145.282 5.26953 145.317 5.33965 145.27 5.3864L139.177 11.6969C139.153 11.7203 139.153 11.767 139.177 11.7904Z" fill="#161616"/>
<path d="M23.9696 0.726562L14.4175 7.79442L16.1938 3.6291L23.9696 0.726562Z" fill="#E17726" stroke="#E17726" stroke-width="0.25" stroke-linecap="round" stroke-linejoin="round"/>
<path d="M1.93652 0.726562L11.4035 7.86038L9.71235 3.62909L1.93652 0.726562Z" fill="#E27625" stroke="#E27625" stroke-width="0.25" stroke-linecap="round" stroke-linejoin="round"/>
<path d="M20.5303 17.1152L17.9888 20.9979L23.4309 22.4963L24.9899 17.2001L20.5303 17.1152Z" fill="#E27625" stroke="#E27625" stroke-width="0.25" stroke-linecap="round" stroke-linejoin="round"/>
<path d="M0.925613 17.2001L2.4751 22.4963L7.90779 20.9979L5.37567 17.1152L0.925613 17.2001Z" fill="#E27625" stroke="#E27625" stroke-width="0.25" stroke-linecap="round" stroke-linejoin="round"/>
<path d="M7.6147 10.5571L6.10303 12.8377L11.4884 13.0827L11.309 7.28711L7.6147 10.5571Z" fill="#E27625" stroke="#E27625" stroke-width="0.25" stroke-linecap="round" stroke-linejoin="round"/>
<path d="M18.2912 10.5567L14.5403 7.2207L14.4175 13.0823L19.8029 12.8373L18.2912 10.5567Z" fill="#E27625" stroke="#E27625" stroke-width="0.25" stroke-linecap="round" stroke-linejoin="round"/>
<path d="M7.90771 20.9984L11.1673 19.4246L8.36124 17.2383L7.90771 20.9984Z" fill="#E27625" stroke="#E27625" stroke-width="0.25" stroke-linecap="round" stroke-linejoin="round"/>
<path d="M14.7388 19.4246L17.9889 20.9984L17.5448 17.2383L14.7388 19.4246Z" fill="#E27625" stroke="#E27625" stroke-width="0.25" stroke-linecap="round" stroke-linejoin="round"/>
<path d="M17.9889 20.9976L14.7388 19.4238L15.0033 21.5347L14.9749 22.43L17.9889 20.9976Z" fill="#D5BFB2" stroke="#D5BFB2" stroke-width="0.25" stroke-linecap="round" stroke-linejoin="round"/>
<path d="M7.90771 20.9976L10.9311 22.43L10.9122 21.5347L11.1673 19.4238L7.90771 20.9976Z" fill="#D5BFB2" stroke="#D5BFB2" stroke-width="0.25" stroke-linecap="round" stroke-linejoin="round"/>
<path d="M10.9878 15.8438L8.28564 15.0522L10.1942 14.1758L10.9878 15.8438Z" fill="#233447" stroke="#233447" stroke-width="0.25" stroke-linecap="round" stroke-linejoin="round"/>
<path d="M14.9185 15.8438L15.7121 14.1758L17.6301 15.0522L14.9185 15.8438Z" fill="#233447" stroke="#233447" stroke-width="0.25" stroke-linecap="round" stroke-linejoin="round"/>
<path d="M7.90777 20.9979L8.38021 17.1152L5.3757 17.2001L7.90777 20.9979Z" fill="#CC6228" stroke="#CC6228" stroke-width="0.25" stroke-linecap="round" stroke-linejoin="round"/>
<path d="M17.5259 17.1152L17.9889 20.9979L20.5304 17.2001L17.5259 17.1152Z" fill="#CC6228" stroke="#CC6228" stroke-width="0.25" stroke-linecap="round" stroke-linejoin="round"/>
<path d="M19.8029 12.8359L14.4175 13.081L14.9182 15.8422L15.7119 14.1741L17.6298 15.0506L19.8029 12.8359Z" fill="#CC6228" stroke="#CC6228" stroke-width="0.25" stroke-linecap="round" stroke-linejoin="round"/>
<path d="M8.28554 15.0506L10.194 14.1741L10.9877 15.8422L11.4884 13.081L6.10303 12.8359L8.28554 15.0506Z" fill="#CC6228" stroke="#CC6228" stroke-width="0.25" stroke-linecap="round" stroke-linejoin="round"/>
<path d="M6.10352 12.8359L8.36163 17.2369L8.286 15.0506L6.10352 12.8359Z" fill="#E27525" stroke="#E27525" stroke-width="0.25" stroke-linecap="round" stroke-linejoin="round"/>
<path d="M17.6299 15.0506L17.5449 17.2369L19.803 12.8359L17.6299 15.0506Z" fill="#E27525" stroke="#E27525" stroke-width="0.25" stroke-linecap="round" stroke-linejoin="round"/>
<path d="M11.4889 13.0818L10.9881 15.843L11.6211 19.1036L11.7628 14.8064L11.4889 13.0818Z" fill="#E27525" stroke="#E27525" stroke-width="0.25" stroke-linecap="round" stroke-linejoin="round"/>
<path d="M14.4176 13.0818L14.153 14.797L14.2853 19.1036L14.9183 15.843L14.4176 13.0818Z" fill="#E27525" stroke="#E27525" stroke-width="0.25" stroke-linecap="round" stroke-linejoin="round"/>
<path d="M14.9182 15.8424L14.2852 19.103L14.7387 19.4234L17.5448 17.2371L17.6298 15.0508L14.9182 15.8424Z" fill="#F5841F" stroke="#F5841F" stroke-width="0.25" stroke-linecap="round" stroke-linejoin="round"/>
<path d="M8.28564 15.0508L8.36128 17.2371L11.1673 19.4234L11.6208 19.103L10.9878 15.8424L8.28564 15.0508Z" fill="#F5841F" stroke="#F5841F" stroke-width="0.25" stroke-linecap="round" stroke-linejoin="round"/>
<path d="M14.9751 22.4302L15.0033 21.535L14.7577 21.3276H11.1486L10.9124 21.535L10.9313 22.4302L7.90785 20.9978L8.96603 21.8648L11.1108 23.3443H14.786L16.9402 21.8648L17.9889 20.9978L14.9751 22.4302Z" fill="#C0AC9D" stroke="#C0AC9D" stroke-width="0.25" stroke-linecap="round" stroke-linejoin="round"/>
<path d="M14.7388 19.4241L14.2852 19.1038H11.6209L11.1674 19.4241L10.9123 21.5351L11.1485 21.3278H14.7577L15.0033 21.5351L14.7388 19.4241Z" fill="#161616" stroke="#161616" stroke-width="0.25" stroke-linecap="round" stroke-linejoin="round"/>
<path d="M24.3758 8.25616L25.1789 4.35473L23.9695 0.726562L14.7388 7.55885L18.2912 10.5556L23.3082 12.0163L24.4136 10.7253L23.9318 10.3765L24.697 9.67922L24.1113 9.22685L24.8766 8.64256L24.3758 8.25616Z" fill="#763E1A" stroke="#763E1A" stroke-width="0.25" stroke-linecap="round" stroke-linejoin="round"/>
<path d="M0.727051 4.35473L1.53959 8.25616L1.01995 8.64256L1.79469 9.22685L1.20891 9.67922L1.9742 10.3765L1.49235 10.7253L2.59778 12.0163L7.61476 10.5556L11.1672 7.55885L1.93641 0.726562L0.727051 4.35473Z" fill="#763E1A" stroke="#763E1A" stroke-width="0.25" stroke-linecap="round" stroke-linejoin="round"/>
<path d="M23.3083 12.0173L18.2913 10.5566L19.803 12.8372L17.5449 17.2381L20.5305 17.2004H24.99L23.3083 12.0173Z" fill="#F5841F" stroke="#F5841F" stroke-width="0.25" stroke-linecap="round" stroke-linejoin="round"/>
<path d="M7.61501 10.5566L2.59809 12.0173L0.925781 17.2004H5.37584L8.36141 17.2381L6.10335 12.8372L7.61501 10.5566Z" fill="#F5841F" stroke="#F5841F" stroke-width="0.25" stroke-linecap="round" stroke-linejoin="round"/>
<path d="M14.4176 13.081L14.7388 7.5586L16.1938 3.62891H9.7124L11.1674 7.5586L11.4886 13.081L11.6115 14.815L11.6209 19.1028H14.2853L14.2947 14.815L14.4176 13.081Z" fill="#F5841F" stroke="#F5841F" stroke-width="0.25" stroke-linecap="round" stroke-linejoin="round"/>
</svg>
