<svg width="17" height="17" viewBox="0 0 17 17" fill="none" xmlns="http://www.w3.org/2000/svg">
<path d="M8.5 17C13.1962 17 17 13.1962 17 8.5C17 3.80379 13.1962 0 8.5 0C3.80379 0 0 3.80379 0 8.5C0 13.1962 3.80379 17 8.5 17ZM8.5 15.8955C4.40904 15.8955 1.10005 12.5821 1.10005 8.5C1.10005 4.40904 4.40904 1.10447 8.5 1.10447C12.591 1.10447 15.8955 4.40904 15.8955 8.5C15.8955 12.5821 12.591 15.8955 8.5 15.8955ZM12.1492 3.97609H10.7973V10.6206H10.7134L6.10993 3.97609H4.84641V13.0239H6.21154V6.38825H6.29548L10.8945 13.0239H12.1492V3.97609Z" fill="white"/>
</svg>
