<svg width="116" height="10" viewBox="0 0 116 10" fill="none" xmlns="http://www.w3.org/2000/svg">
<path d="M5.70499 2.8892H7.72488C7.70783 1.2571 6.40811 0.153409 4.37971 0.153409C2.38539 0.153409 0.949308 1.24006 0.962092 2.86364C0.95783 4.18892 1.88681 4.93466 3.39533 5.27983L4.30726 5.4929C5.26607 5.71449 5.69647 5.97443 5.70499 6.46449C5.69647 6.99716 5.19789 7.3679 4.34988 7.3679C3.41664 7.3679 2.803 6.93324 2.75613 6.09375H0.736239C0.761808 8.13494 2.18084 9.1108 4.37544 9.1108C6.54874 9.1108 7.83567 8.12642 7.84419 6.46875C7.83567 5.07528 6.89391 4.22301 5.17232 3.84375L4.42232 3.6733C3.62971 3.50284 3.12686 3.23864 3.14391 2.71875C3.14817 2.24148 3.55726 1.89631 4.37544 1.89631C5.19789 1.89631 5.64959 2.26705 5.70499 2.8892ZM10.8295 9H16.9148V7.28693H12.9389V5.4929H16.6037V3.77557H12.9389V1.9858H16.9148V0.272727H10.8295V9ZM27.5833 0.272727H25.4782V5.30114H25.4058L21.9711 0.272727H20.1558V9H22.2652V3.96307H22.3206L25.7936 9H27.5833V0.272727ZM34.0555 9C36.7146 9 38.3638 7.35938 38.3638 4.6321C38.3638 1.90909 36.7146 0.272727 34.0513 0.272727H30.8297V9H34.0555ZM32.9391 7.2017V2.07102H33.9447C35.4447 2.07102 36.2501 2.75284 36.2501 4.6321C36.2501 6.51989 35.4447 7.2017 33.9746 7.2017H32.9391ZM46.0134 0.272727V9H48.0674V3.60938H48.1399L50.2365 8.9446H51.549L53.6455 3.6392H53.718V9H55.772V0.272727H53.1597L50.9438 5.67614H50.8416L48.6257 0.272727H46.0134ZM59.0077 9H65.0929V7.28693H61.117V5.4929H64.7818V3.77557H61.117V1.9858H65.0929V0.272727H59.0077V9ZM73.0512 2.8892H75.0711C75.0541 1.2571 73.7544 0.153409 71.726 0.153409C69.7316 0.153409 68.2956 1.24006 68.3083 2.86364C68.3041 4.18892 69.2331 4.93466 70.7416 5.27983L71.6535 5.4929C72.6123 5.71449 73.0427 5.97443 73.0512 6.46449C73.0427 6.99716 72.5441 7.3679 71.6961 7.3679C70.7629 7.3679 70.1493 6.93324 70.1024 6.09375H68.0825C68.1081 8.13494 69.5271 9.1108 71.7217 9.1108C73.895 9.1108 75.1819 8.12642 75.1904 6.46875C75.1819 5.07528 74.2402 4.22301 72.5186 3.84375L71.7686 3.6733C70.976 3.50284 70.4731 3.23864 70.4902 2.71875C70.4944 2.24148 70.9035 1.89631 71.7217 1.89631C72.5441 1.89631 72.9958 2.26705 73.0512 2.8892ZM82.8931 2.8892H84.913C84.896 1.2571 83.5962 0.153409 81.5678 0.153409C79.5735 0.153409 78.1374 1.24006 78.1502 2.86364C78.146 4.18892 79.0749 4.93466 80.5835 5.27983L81.4954 5.4929C82.4542 5.71449 82.8846 5.97443 82.8931 6.46449C82.8846 6.99716 82.386 7.3679 81.538 7.3679C80.6048 7.3679 79.9911 6.93324 79.9443 6.09375H77.9244C77.9499 8.13494 79.369 9.1108 81.5636 9.1108C83.7369 9.1108 85.0238 8.12642 85.0323 6.46875C85.0238 5.07528 84.082 4.22301 82.3604 3.84375L81.6104 3.6733C80.8178 3.50284 80.315 3.23864 80.332 2.71875C80.3363 2.24148 80.7454 1.89631 81.5636 1.89631C82.386 1.89631 82.8377 2.26705 82.8931 2.8892ZM89.6359 9L90.2112 7.16761H93.224L93.7993 9H96.0663L93.1217 0.272727H90.3135L87.3689 9H89.6359ZM90.714 5.56534L91.6814 2.47159H91.7495L92.7211 5.56534H90.714ZM104.243 3.12358H106.378C106.165 1.38494 104.614 0.153409 102.594 0.153409C100.263 0.153409 98.422 1.79403 98.422 4.64915C98.422 7.41051 100.118 9.11932 102.619 9.11932C104.865 9.11932 106.472 7.72585 106.472 5.3821V4.22727H102.709V5.76562H104.439C104.418 6.68608 103.779 7.26989 102.637 7.26989C101.328 7.26989 100.574 6.30256 100.574 4.62358C100.574 2.95739 101.371 2.00284 102.637 2.00284C103.48 2.00284 104.056 2.41619 104.243 3.12358ZM109.635 9H115.72V7.28693H111.744V5.4929H115.409V3.77557H111.744V1.9858H115.72V0.272727H109.635V9Z" fill="url(#paint0_linear_78_6655)"/>
<defs>
<linearGradient id="paint0_linear_78_6655" x1="0.327145" y1="-4.56249" x2="96.4073" y2="60.1072" gradientUnits="userSpaceOnUse">
<stop stop-color="#0085FF"/>
<stop offset="1" stop-color="#FF5963"/>
</linearGradient>
</defs>
</svg>
