<svg width="17" height="14" viewBox="0 0 17 14" fill="none" xmlns="http://www.w3.org/2000/svg">
<path d="M1.21983 6.56282L1.21985 6.56289L1.22788 6.55959L1.03805 6.09703L1.22797 6.55956L1.22823 6.55945L1.22925 6.55903L1.23333 6.55736L1.24946 6.55074L1.31264 6.5248L1.55479 6.4254L2.43867 6.06243C3.18134 5.75738 4.19864 5.33938 5.29712 4.88754C7.4936 3.98406 10.0161 2.94475 11.3159 2.40314L11.3159 2.40319L11.323 2.40014C11.8157 2.18593 12.904 1.73335 13.8739 1.33235C14.3579 1.13229 14.8107 0.94573 15.1426 0.809177L15.5385 0.646449L15.6472 0.601789L15.6756 0.590134L15.6779 0.589174L15.6816 0.587825C15.6885 0.585362 15.7002 0.581278 15.716 0.576171C15.7479 0.565875 15.7949 0.551893 15.8512 0.538668C15.9699 0.5108 16.1027 0.492904 16.2151 0.502682C16.3268 0.512401 16.3628 0.543177 16.3748 0.557292C16.3856 0.569971 16.4514 0.655997 16.4259 0.945354L16.4258 0.945348L16.4252 0.953664C16.3955 1.36948 16.2124 2.55723 15.982 4.05165C15.8912 4.64081 15.793 5.27762 15.694 5.93359C15.4344 7.5564 15.1639 9.25463 14.9584 10.5473L14.7081 12.1226L14.6373 12.5691L14.6185 12.6874L14.6137 12.7177L14.6125 12.7254L14.6122 12.7274L14.6121 12.7279L14.6121 12.728L15.1059 12.8063L14.6121 12.728L14.6093 12.7455L14.6081 12.7601L14.6081 12.7601C14.608 12.7602 14.608 12.7604 14.608 12.7608C14.6079 12.7612 14.6079 12.7617 14.6078 12.7624C14.6076 12.7641 14.6073 12.7667 14.6069 12.7702C14.6065 12.7732 14.606 12.7768 14.6055 12.7811C14.6029 12.7994 14.5984 12.8283 14.591 12.8646C14.5759 12.9385 14.5504 13.0352 14.5097 13.1322C14.4228 13.339 14.31 13.4552 14.169 13.4884C14.0896 13.507 13.961 13.5062 13.7788 13.4638C13.602 13.4225 13.4081 13.35 13.2161 13.2614C12.8265 13.0816 12.5047 12.864 12.4317 12.8055L12.4255 12.8006L12.4191 12.7958C12.3674 12.757 12.1772 12.6328 11.926 12.4687C11.8839 12.4412 11.84 12.4126 11.7949 12.3831C11.4652 12.1676 11.0314 11.8833 10.5683 11.5737C9.63395 10.949 8.60936 10.2401 8.07161 9.78531C7.95901 9.6885 7.90015 9.59201 7.88943 9.52465C7.88544 9.49958 7.88549 9.46639 7.90735 9.41627C7.93124 9.36151 7.98776 9.27265 8.11986 9.15705L8.11995 9.15715L8.12845 9.14935C9.69082 7.71721 11.5575 5.93742 12.6892 4.80576C12.867 4.62794 13.0325 4.37215 13.0115 4.06593C12.9876 3.71863 12.7424 3.50072 12.494 3.41109C12.0441 3.24877 11.4575 3.41425 10.9262 3.78094C9.39231 4.83955 7.86872 5.8661 6.72827 6.6282C6.15813 7.0092 5.68396 7.32396 5.35239 7.54343C5.18661 7.65317 5.0565 7.73907 4.96787 7.7975L4.86679 7.8641L4.84593 7.87783C4.84577 7.87791 4.84561 7.87799 4.84545 7.87808C4.83685 7.88251 4.81859 7.89146 4.79082 7.90269C4.73539 7.92513 4.64178 7.95683 4.51096 7.98003C4.25207 8.02596 3.83342 8.04117 3.25944 7.86897L3.25942 7.86896C2.61641 7.67609 1.91789 7.45045 1.37866 7.27251C1.10938 7.18365 0.880508 7.10691 0.719048 7.05241C0.643879 7.02704 0.583346 7.0065 0.540177 6.99181C0.535588 6.9876 0.530865 6.98304 0.526165 6.9782C0.522129 6.97405 0.51861 6.97022 0.515547 6.96672C0.520635 6.96066 0.526956 6.95358 0.534775 6.94544C0.614911 6.8621 0.806331 6.72419 1.21983 6.56282ZM15.6749 0.590291C15.6746 0.590387 15.6747 0.59035 15.6752 0.590189L15.6749 0.590291Z" stroke="black"/>
</svg>
