<svg width="20" height="20" viewBox="0 0 20 20" fill="none" xmlns="http://www.w3.org/2000/svg">
<path d="M3.74993 15.625C3.74993 15.625 6.87493 15 7.49993 13.125C7.49993 13.125 2.49993 11.25 3.74993 4.375C3.74993 4.375 6.24993 7.5 9.99993 8.125V6.87523C10 6.15723 10.2473 5.46114 10.7002 4.904C11.1531 4.34686 11.784 3.96264 12.4868 3.81594C13.1897 3.66924 13.9216 3.769 14.5596 4.09845C15.1975 4.4279 15.7026 4.96695 15.9899 5.62497L18.7499 5.625L16.2499 8.125C16.2499 12.5 13.1249 16.875 7.49993 16.875C4.99993 16.875 3.74993 15.625 3.74993 15.625Z" stroke="#000513" stroke-width="1.2" stroke-linecap="round" stroke-linejoin="round"/>
</svg>
