<svg width="122" height="18" viewBox="0 0 122 18" fill="none" xmlns="http://www.w3.org/2000/svg">
<path fill-rule="evenodd" clip-rule="evenodd" d="M63.4966 6.50002L67.2936 0.914036C67.4667 0.634766 67.7091 0.404124 67.9976 0.244117C68.2862 0.0841096 68.6113 7.6864e-05 68.942 3.75424e-05C69.1971 -0.00154465 69.45 0.0468983 69.6861 0.142578C69.9223 0.238258 70.137 0.379285 70.3179 0.557545C70.4989 0.735805 70.6425 0.947778 70.7405 1.18127C70.8385 1.41475 70.8889 1.66515 70.8889 1.91803V16.08C70.8889 16.3319 70.8389 16.5813 70.7416 16.814C70.6444 17.0467 70.5019 17.2581 70.3222 17.4362C70.1425 17.6143 69.9292 17.7556 69.6945 17.852C69.4598 17.9484 69.2082 17.998 68.9541 17.998H68.5506C68.269 17.9982 67.9908 17.9374 67.7353 17.8199C67.4799 17.7025 67.2534 17.5312 67.0717 17.318L55.7733 3.91803C55.7533 3.89482 55.7266 3.87822 55.6968 3.87045C55.667 3.86268 55.6356 3.8641 55.6066 3.87454C55.5777 3.88498 55.5526 3.90392 55.5348 3.92885C55.517 3.95377 55.5073 3.98349 55.507 4.01403V14.062C55.5064 14.091 55.5145 14.1195 55.5301 14.144C55.5457 14.1685 55.5682 14.1879 55.5948 14.1998C55.6215 14.2117 55.6511 14.2156 55.6799 14.2111C55.7088 14.2065 55.7357 14.1936 55.7572 14.174L59.4937 10.974C59.5663 10.903 59.6633 10.8619 59.7653 10.8589C59.8672 10.8559 59.9665 10.8913 60.0432 10.9579C60.1199 11.0246 60.1683 11.1175 60.1786 11.2181C60.189 11.3187 60.1605 11.4194 60.099 11.5L56.3019 17.086C56.1289 17.3653 55.8865 17.5959 55.5979 17.7559C55.3093 17.9159 54.9842 18 54.6536 18C54.1404 18 53.6483 17.7979 53.2854 17.4382C52.9226 17.0785 52.7188 16.5907 52.7188 16.082V1.91803C52.7188 1.40935 52.9226 0.921499 53.2854 0.561805C53.6483 0.202111 54.1404 3.75424e-05 54.6536 3.75424e-05H55.047C55.3292 0.0016468 55.6076 0.0644216 55.8627 0.183961C56.1178 0.303501 56.3435 0.476912 56.5239 0.692036L67.8222 14.092C67.8422 14.1152 67.8689 14.1318 67.8987 14.1396C67.9285 14.1474 67.96 14.1459 67.9889 14.1355C68.0179 14.1251 68.0429 14.1061 68.0607 14.0812C68.0785 14.0563 68.0882 14.0265 68.0885 13.996V3.93803C68.0891 3.90906 68.0811 3.88056 68.0655 3.85606C68.0499 3.83157 68.0274 3.81215 68.0007 3.80023C67.9741 3.7883 67.9445 3.78439 67.9156 3.78897C67.8868 3.79356 67.8599 3.80645 67.8384 3.82603L64.1018 7.02602C64.0293 7.09704 63.9322 7.13818 63.8303 7.14117C63.7284 7.14416 63.6291 7.10877 63.5524 7.04213C63.4757 6.97548 63.4273 6.88253 63.4169 6.78195C63.4066 6.68138 63.435 6.58065 63.4966 6.50002ZM102.149 14.4012H100.608C100.584 14.401 100.56 14.395 100.539 14.3839C100.518 14.3728 100.499 14.3568 100.485 14.3372C100.472 14.3177 100.463 14.2951 100.459 14.2715C100.456 14.2478 100.459 14.2237 100.467 14.2012L104.55 3.74521C104.568 3.70144 104.598 3.66409 104.638 3.63831C104.678 3.61252 104.725 3.59957 104.772 3.60121H106.703C106.749 3.60161 106.793 3.61552 106.831 3.64117C106.869 3.66682 106.898 3.70305 106.915 3.74521L110.986 14.2012C110.994 14.2237 110.997 14.2478 110.994 14.2715C110.99 14.2951 110.981 14.3177 110.968 14.3372C110.954 14.3568 110.935 14.3728 110.914 14.3839C110.893 14.395 110.869 14.401 110.845 14.4012H109.304C109.273 14.4013 109.243 14.3922 109.217 14.3751C109.192 14.358 109.172 14.3336 109.16 14.3052L105.87 5.70521C105.859 5.67625 105.84 5.65123 105.814 5.63355C105.789 5.61587 105.759 5.60639 105.728 5.60639C105.696 5.60639 105.666 5.61587 105.641 5.63355C105.615 5.65123 105.596 5.67625 105.585 5.70521L102.295 14.3052C102.283 14.3339 102.263 14.3585 102.237 14.3757C102.211 14.3928 102.181 14.4017 102.149 14.4012ZM87.2613 14.2515V3.75156C87.2609 3.71359 87.2462 3.67714 87.2201 3.64938C87.1939 3.62162 87.1583 3.60456 87.1201 3.60156H85.6634C85.6233 3.60156 85.5848 3.61737 85.5564 3.6455C85.528 3.67363 85.5121 3.71178 85.5121 3.75156V8.12155L85.6674 11.9335L80.6679 4.28556C80.5302 4.07569 80.3419 3.90321 80.1199 3.78377C79.8979 3.66432 79.6494 3.6017 79.3969 3.60156H78.3013C78.2614 3.60208 78.2232 3.61805 78.1949 3.64607C78.1666 3.67409 78.1505 3.71194 78.15 3.75156V14.2515C78.1505 14.2912 78.1666 14.329 78.1949 14.357C78.2232 14.3851 78.2614 14.401 78.3013 14.4015H79.758C79.798 14.401 79.8362 14.3851 79.8644 14.357C79.8927 14.329 79.9088 14.2912 79.9093 14.2515V9.88155L79.7378 6.05556L84.7373 13.7155C84.8744 13.9262 85.0626 14.0993 85.2846 14.2192C85.5067 14.339 85.7555 14.4017 86.0084 14.4015H87.11C87.1499 14.401 87.1881 14.3851 87.2164 14.357C87.2447 14.329 87.2608 14.2912 87.2613 14.2515ZM4.3125 11.6648L2.3608 5.27273H0L2.9446 14H5.75284L8.69744 5.27273H6.33665L4.38494 11.6648H4.3125ZM13.6664 14V5.27273H11.5571V14H13.6664ZM21.2487 7.16051C21.4732 7.33381 21.5996 7.5767 21.628 7.8892H23.6479C23.6422 7.34659 23.5016 6.86932 23.226 6.45739C22.9504 6.04545 22.5627 5.72585 22.0627 5.49858C21.5655 5.26847 20.9788 5.15341 20.3027 5.15341C19.6408 5.15341 19.0513 5.26705 18.5342 5.49432C18.0172 5.72159 17.6124 6.03835 17.3198 6.4446C17.0271 6.85085 16.8823 7.32386 16.8851 7.86364C16.8823 8.52557 17.0982 9.05114 17.5328 9.44034C17.9675 9.8267 18.5627 10.1065 19.3183 10.2798L20.2303 10.4929C20.5485 10.5668 20.8098 10.6477 21.0144 10.7358C21.2217 10.821 21.3752 10.9233 21.4746 11.0426C21.574 11.1591 21.6252 11.2997 21.628 11.4645C21.6252 11.6406 21.5698 11.7969 21.4618 11.9332C21.3538 12.0696 21.199 12.1761 20.9973 12.2528C20.7985 12.3295 20.557 12.3679 20.2729 12.3679C19.9632 12.3679 19.6905 12.3196 19.4547 12.223C19.2217 12.1264 19.0385 11.9844 18.905 11.7969C18.7715 11.6094 18.6962 11.375 18.6791 11.0938H16.6592C16.6678 11.7756 16.8226 12.3395 17.1237 12.7855C17.4249 13.2315 17.8467 13.5639 18.3894 13.7827C18.932 14.0014 19.5683 14.1108 20.2985 14.1108C21.0257 14.1108 21.6465 14.0057 22.1607 13.7955C22.6777 13.5852 23.074 13.2827 23.3496 12.8878C23.6252 12.4929 23.7644 12.0199 23.7672 11.4688C23.7644 11.1193 23.7047 10.804 23.5882 10.5227C23.4717 10.2415 23.2999 9.9929 23.0726 9.77699C22.8482 9.56108 22.5698 9.375 22.2374 9.21875C21.9078 9.0625 21.5271 8.9375 21.0953 8.84375L20.3453 8.6733C20.1465 8.63068 19.9675 8.58097 19.8084 8.52415C19.6493 8.46733 19.5129 8.40199 19.3993 8.32812C19.2885 8.25142 19.2033 8.16335 19.1436 8.06392C19.0868 7.96449 19.0612 7.84943 19.0669 7.71875C19.0698 7.55966 19.1166 7.41903 19.2075 7.29688C19.2985 7.17188 19.4348 7.07386 19.6166 7.00284C19.7985 6.93182 20.0257 6.89631 20.2985 6.89631C20.7104 6.89631 21.0271 6.98438 21.2487 7.16051ZM28.8619 14V5.27273H26.7525V14H28.8619ZM31.8206 5.27273V6.9858H34.4712V14H36.5507V6.9858H39.197V5.27273H31.8206ZM118.624 10.2815L121.687 14.1595C121.704 14.1811 121.714 14.2069 121.718 14.2341C121.721 14.2613 121.717 14.2889 121.705 14.3138C121.694 14.3388 121.676 14.3601 121.653 14.3756C121.63 14.3911 121.603 14.4 121.576 14.4015H120.47C120.236 14.4028 120.005 14.3504 119.795 14.2483C119.585 14.1463 119.402 13.9975 119.26 13.8135L116.603 10.3755H114.922V14.2655C114.921 14.3052 114.905 14.343 114.877 14.371C114.849 14.3991 114.811 14.415 114.771 14.4155H113.314C113.274 14.4155 113.235 14.3997 113.207 14.3716C113.179 14.3435 113.163 14.3053 113.163 14.2655V9.06555C113.163 9.00596 113.186 8.94877 113.229 8.90645C113.271 8.86412 113.328 8.84008 113.389 8.83955H117.482C118.929 8.83955 119.599 8.08755 119.599 7.03956C119.599 5.99156 118.913 5.26556 117.482 5.26556H114.615C114.424 5.26556 114.236 5.22831 114.059 5.15595C113.883 5.08358 113.723 4.97751 113.588 4.84379C113.453 4.71008 113.346 4.55133 113.273 4.37663C113.2 4.20192 113.163 4.01467 113.163 3.82556C113.163 3.76615 113.186 3.70918 113.229 3.66717C113.271 3.62516 113.329 3.60156 113.389 3.60156H117.66C120.026 3.60156 121.364 4.98956 121.364 7.02755C121.364 8.80155 120.353 9.95755 118.624 10.2815ZM97.5433 3.60156H90.7845C90.731 3.60156 90.6797 3.62263 90.6418 3.66014C90.604 3.69765 90.5827 3.74852 90.5827 3.80156C90.5827 4.19037 90.7385 4.56325 91.0159 4.83818C91.2932 5.11311 91.6694 5.26756 92.0616 5.26756H97.5433C97.5633 5.26783 97.5831 5.26413 97.6015 5.25669C97.62 5.24925 97.6368 5.23821 97.6509 5.22422C97.665 5.21024 97.6762 5.1936 97.6837 5.17528C97.6912 5.15696 97.6949 5.13733 97.6946 5.11756V3.75156C97.6946 3.71178 97.6787 3.67363 97.6503 3.6455C97.6219 3.61737 97.5835 3.60156 97.5433 3.60156ZM97.5433 12.7355H92.4994C92.4594 12.735 92.4213 12.7191 92.393 12.691C92.3647 12.663 92.3486 12.6252 92.3481 12.5855V9.87755C92.3481 9.83777 92.364 9.79961 92.3924 9.77148C92.4208 9.74335 92.4593 9.72755 92.4994 9.72755H97.162C97.2021 9.72755 97.2406 9.71175 97.269 9.68362C97.2974 9.65549 97.3133 9.61733 97.3133 9.57755V8.20155C97.3133 8.16177 97.2974 8.12362 97.269 8.09549C97.2406 8.06736 97.2021 8.05155 97.162 8.05155H90.8087C90.7486 8.05208 90.6911 8.07612 90.6488 8.11845C90.6065 8.16078 90.5827 8.21796 90.5827 8.27755V14.1695C90.5827 14.2289 90.6065 14.2859 90.6489 14.3279C90.6913 14.3699 90.7488 14.3935 90.8087 14.3935H97.5433C97.5835 14.3935 97.6219 14.3777 97.6503 14.3496C97.6787 14.3215 97.6946 14.2833 97.6946 14.2435V12.8775C97.6931 12.839 97.6764 12.8026 97.6481 12.776C97.6198 12.7495 97.5822 12.735 97.5433 12.7355Z" fill="url(#paint0_linear_394_2430)"/>
<defs>
<linearGradient id="paint0_linear_394_2430" x1="-3.95187e-06" y1="-1.87499" x2="107.269" y2="59.4781" gradientUnits="userSpaceOnUse">
<stop stop-color="#0085FF"/>
<stop offset="1" stop-color="#FF5963"/>
</linearGradient>
</defs>
</svg>
