<svg width="152" height="25" viewBox="0 0 152 25" fill="none" xmlns="http://www.w3.org/2000/svg">
<g clip-path="url(#clip0_1852_9440)">
<path fill-rule="evenodd" clip-rule="evenodd" d="M54.8786 11.5622L52.7925 19.069H50.6227L47.7144 8.08291H50.0973L51.8256 16.0389H51.8865L53.9421 8.08291H55.8835L57.9391 16.0389H58L59.7359 8.08291H62.1189L59.203 19.069H57.0331L54.9471 11.5622H54.8786ZM65.286 17.592C66.2529 17.592 67.0524 16.9601 67.0524 16.077V15.4831L65.3317 15.5897C64.5019 15.6506 64.0298 16.0237 64.0298 16.6023C64.0298 17.2114 64.5323 17.592 65.286 17.592ZM64.5552 19.1985C63.002 19.1985 61.822 18.1935 61.822 16.7241C61.822 15.2395 62.964 14.3792 64.9967 14.2574L67.0524 14.1356V13.595C67.0524 12.8337 66.5194 12.3921 65.6819 12.3921C64.8521 12.3921 64.3268 12.8032 64.2202 13.4047H62.1874C62.2711 11.8211 63.6187 10.7324 65.7809 10.7324C67.8746 10.7324 69.2374 11.8135 69.2374 13.458V19.069H67.0904V17.8204H67.0447C66.5879 18.6884 65.5754 19.1985 64.5552 19.1985ZM70.722 19.069V8.08291H72.9451V19.069H70.722ZM74.4982 19.069V8.08291H76.7213V19.069H74.4982ZM81.8832 12.3769C80.9087 12.3769 80.2083 13.1154 80.1321 14.1356H83.5962C83.5506 13.0925 82.873 12.3769 81.8832 12.3769ZM83.6267 16.5718H85.6671C85.4234 18.1706 83.9617 19.2441 81.9441 19.2441C79.4317 19.2441 77.9243 17.6377 77.9243 15.0263C77.9243 12.4225 79.4469 10.7324 81.8604 10.7324C84.2358 10.7324 85.7356 12.3388 85.7356 14.8208V15.4983H80.1093V15.6354C80.1093 16.8002 80.8478 17.5996 81.9822 17.5996C82.7968 17.5996 83.4211 17.1961 83.6267 16.5718ZM87.4715 9.02697H89.6946V10.9075H91.202V12.5824H89.6946V16.4881C89.6946 17.1124 89.9991 17.4093 90.6538 17.4093C90.8518 17.4093 91.0574 17.3941 91.1944 17.3712V19.0081C90.966 19.0614 90.5853 19.0995 90.1361 19.0995C88.2176 19.0995 87.4715 18.46 87.4715 16.8688V12.5824H86.3218V10.9075H87.4715V9.02697ZM97.4678 19.2594C94.2702 19.2594 92.2679 17.12 92.2679 13.5722C92.2679 10.0319 94.2854 7.89258 97.4678 7.89258C100.11 7.89258 102.12 9.56752 102.295 12.0266H100.056C99.8432 10.6791 98.8078 9.79592 97.4678 9.79592C95.732 9.79592 94.6128 11.2501 94.6128 13.5645C94.6128 15.9095 95.7167 17.356 97.4754 17.356C98.8382 17.356 99.8204 16.5566 100.064 15.2547H102.302C102.043 17.7062 100.163 19.2594 97.4678 19.2594ZM107.274 19.2441C104.807 19.2441 103.231 17.6606 103.231 14.9806C103.231 12.3388 104.83 10.7324 107.274 10.7324C109.718 10.7324 111.317 12.3312 111.317 14.9806C111.317 17.6682 109.741 19.2441 107.274 19.2441ZM107.274 17.5463C108.363 17.5463 109.055 16.6251 109.055 14.9883C109.055 13.3666 108.355 12.4302 107.274 12.4302C106.193 12.4302 105.485 13.3666 105.485 14.9883C105.485 16.6251 106.178 17.5463 107.274 17.5463ZM112.459 19.069V10.9075H114.606V12.3616H114.651C115.085 11.3491 115.946 10.7552 117.202 10.7552C119.014 10.7552 120.034 11.8972 120.034 13.8082V19.069H117.811V14.2726C117.811 13.2067 117.308 12.5976 116.311 12.5976C115.314 12.5976 114.682 13.3285 114.682 14.3868V19.069H112.459ZM121.442 19.069V10.9075H123.589V12.3616H123.635C124.069 11.3491 124.929 10.7552 126.186 10.7552C127.997 10.7552 129.018 11.8972 129.018 13.8082V19.069H126.795V14.2726C126.795 13.2067 126.292 12.5976 125.295 12.5976C124.297 12.5976 123.665 13.3285 123.665 14.3868V19.069H121.442ZM134.088 12.3769C133.114 12.3769 132.413 13.1154 132.337 14.1356H135.801C135.756 13.0925 135.078 12.3769 134.088 12.3769ZM135.832 16.5718H137.872C137.628 18.1706 136.167 19.2441 134.149 19.2441C131.637 19.2441 130.129 17.6377 130.129 15.0263C130.129 12.4225 131.652 10.7324 134.065 10.7324C136.441 10.7324 137.941 12.3388 137.941 14.8208V15.4983H132.314V15.6354C132.314 16.8002 133.053 17.5996 134.187 17.5996C135.002 17.5996 135.626 17.1961 135.832 16.5718ZM146.498 13.9452H144.435C144.305 13.0849 143.734 12.4758 142.821 12.4758C141.724 12.4758 141.039 13.4047 141.039 14.9806C141.039 16.5871 141.724 17.5007 142.828 17.5007C143.719 17.5007 144.298 16.9677 144.435 16.077H146.506C146.391 18.0032 144.952 19.2441 142.806 19.2441C140.346 19.2441 138.786 17.6453 138.786 14.9806C138.786 12.3616 140.346 10.7324 142.79 10.7324C144.998 10.7324 146.399 12.0952 146.498 13.9452ZM148.173 9.02697H150.396V10.9075H151.904V12.5824H150.396V16.4881C150.396 17.1124 150.701 17.4093 151.355 17.4093C151.553 17.4093 151.759 17.3941 151.896 17.3712V19.0081C151.667 19.0614 151.287 19.0995 150.838 19.0995C148.919 19.0995 148.173 18.46 148.173 16.8688V12.5824H147.023V10.9075H148.173V9.02697Z" fill="#3999FB"/>
<path d="M8.28181 4.84394C14.8677 -1.60423 25.5456 -1.60423 32.1316 4.84394L32.9242 5.61999C33.2535 5.9424 33.2535 6.46513 32.9242 6.78754L30.2128 9.44224C30.0481 9.60345 29.7812 9.60345 29.6165 9.44224L28.5258 8.37431C23.9313 3.8759 16.4821 3.8759 11.8876 8.37431L10.7195 9.51798C10.5548 9.67918 10.2879 9.67918 10.1233 9.51798L7.41183 6.86327C7.08254 6.54086 7.08254 6.01813 7.41183 5.69573L8.28181 4.84394ZM37.739 10.3342L40.1522 12.6969C40.4815 13.0193 40.4815 13.542 40.1522 13.8644L29.2711 24.5181C28.9418 24.8405 28.4079 24.8405 28.0786 24.5181C28.0786 24.5181 28.0786 24.5181 28.0786 24.5181L20.3558 16.9569C20.2735 16.8763 20.14 16.8763 20.0577 16.9569C20.0577 16.9569 20.0577 16.9569 20.0577 16.9569L12.3351 24.5181C12.0058 24.8405 11.4719 24.8405 11.1426 24.5181C11.1426 24.5181 11.1426 24.5181 11.1426 24.5181L0.261132 13.8643C-0.0681639 13.5419 -0.0681639 13.0191 0.261132 12.6967L2.67431 10.334C3.0036 10.0116 3.5375 10.0116 3.86679 10.334L11.5897 17.8954C11.672 17.976 11.8055 17.976 11.8878 17.8954C11.8878 17.8954 11.8878 17.8954 11.8878 17.8954L19.6103 10.334C19.9396 10.0116 20.4735 10.0116 20.8028 10.334C20.8028 10.334 20.8028 10.334 20.8028 10.334L28.5257 17.8954C28.608 17.976 28.7415 17.976 28.8238 17.8954L36.5466 10.3342C36.8758 10.0117 37.4097 10.0117 37.739 10.3342Z" fill="#3B99FC"/>
</g>
<defs>
<clipPath id="clip0_1852_9440">
<rect width="152" height="24.7951" fill="white"/>
</clipPath>
</defs>
</svg>
